<svg width="485" height="114" viewBox="0 0 485 114" fill="none" xmlns="http://www.w3.org/2000/svg">
<path d="M55.7045 0C86.4693 0 111.409 24.8109 111.409 55.4167C111.409 68.8941 106.572 81.2468 98.5316 90.853L100.268 114L81.0451 104.779C76.0012 107.347 70.5122 109.172 64.7234 110.11V57H89.1273V39.0556H64.7234V20.0556H46.6857V39.0556H22.2818V57H46.6857V110.11C20.2098 105.822 0 82.9676 0 55.4167C0 24.8109 24.9398 0 55.7045 0Z" fill="white"/>
<path fill-rule="evenodd" clip-rule="evenodd" d="M168.226 20.4316C172.34 20.4317 176.195 21.1996 179.776 22.7451C183.333 24.2802 186.465 26.417 189.165 29.1514L189.673 29.6631C192.171 32.2498 194.126 35.2189 195.534 38.5625C197.076 42.1395 197.843 45.973 197.843 50.0498C197.843 54.1302 197.074 57.9827 195.531 61.5957C194.031 65.1929 191.91 68.3651 189.172 71.1035C186.47 73.8057 183.335 75.9261 179.776 77.4619C176.195 79.0074 172.34 79.7753 168.226 79.7754C164.588 79.7754 161.347 78.9779 158.544 77.3428L158.535 77.3379L158.527 77.333C156.802 76.2883 155.248 75.0472 153.865 73.6143V105.275H138.283V21.8359H153.865V26.5996C155.251 25.1723 156.808 23.945 158.538 22.9219C161.342 21.2486 164.585 20.4316 168.226 20.4316ZM168.063 35.5273C165.55 35.5273 163.334 36.1853 161.381 37.4873L161.369 37.4951C159.39 38.7816 157.837 40.5123 156.704 42.7109C155.574 44.9051 155 47.3444 155 50.0498C155 52.7522 155.573 55.2092 156.704 57.4414L156.921 57.8496C158.031 59.8566 159.513 61.4716 161.369 62.7119L161.739 62.9424C163.602 64.0596 165.701 64.625 168.063 64.625C170.623 64.6249 172.945 63.9801 175.057 62.6934C177.187 61.3953 178.882 59.6517 180.151 57.4463C181.41 55.225 182.044 52.7678 182.044 50.0498C182.044 47.3677 181.41 44.9464 180.151 42.7607C178.882 40.5554 177.187 38.8117 175.057 37.5137L175.037 37.502C172.969 36.1892 170.656 35.5274 168.063 35.5273Z" fill="white"/>
<path fill-rule="evenodd" clip-rule="evenodd" d="M317.816 22.668L328.361 55.333L340.635 21.8359H357.181L326.753 105.275H310.21L320.423 77.0615L300.542 21.8359H317.549L317.816 22.668Z" fill="white"/>
<path fill-rule="evenodd" clip-rule="evenodd" d="M267.21 20.3242C270.96 20.3243 274.355 21.1598 277.362 22.8564C279.263 23.9156 280.981 25.1625 282.519 26.5957L282.11 21.8369H297.8V78.2637H282.319L281.907 73.623C280.666 75.0344 279.218 76.2532 277.564 77.2744L277.561 77.2764C274.929 78.887 271.84 79.668 268.344 79.668C264.19 79.6679 260.281 78.8809 256.63 77.2998C252.999 75.7276 249.793 73.5535 247.02 70.7803L247.014 70.7744C244.279 68.0017 242.124 64.7973 240.554 61.1699L240.55 61.1611C239.007 57.5117 238.24 53.6057 238.24 49.4561C238.24 45.4526 238.97 41.6756 240.438 38.1367L240.443 38.127C241.943 34.6025 244.028 31.5018 246.695 28.834C249.361 26.1683 252.442 24.0833 255.931 22.583C259.438 21.0744 263.203 20.3242 267.21 20.3242ZM268.02 35.4746C265.466 35.4747 263.148 36.1342 261.038 37.4531L261.034 37.4561C258.943 38.7509 257.264 40.4909 255.992 42.6953L255.77 43.1084C254.692 45.1873 254.146 47.4945 254.146 50.0508C254.147 52.7717 254.783 55.2103 256.04 57.3936C257.312 59.6034 258.993 61.3475 261.088 62.6445C263.2 63.9299 265.502 64.5722 268.02 64.5723C270.618 64.5723 272.872 63.9258 274.821 62.6592C276.801 61.3726 278.355 59.6413 279.487 57.4424C280.619 55.2102 281.191 52.7531 281.191 50.0508C281.191 47.3068 280.617 44.8503 279.487 42.6582L279.484 42.6514C278.353 40.4217 276.785 38.6774 274.775 37.3926L274.768 37.3877C272.816 36.1193 270.579 35.4746 268.02 35.4746Z" fill="white"/>
<path fill-rule="evenodd" clip-rule="evenodd" d="M455.967 20.3242C461.153 20.3242 465.894 21.6621 470.161 24.3418C474.441 27.0076 477.841 30.596 480.351 35.0879L480.587 35.5127C482.986 39.9139 484.181 44.7681 484.181 50.0508C484.181 54.1231 483.451 57.9525 481.983 61.5273C480.524 65.082 478.5 68.233 475.911 70.9717C473.354 73.6797 470.361 75.8061 466.941 77.3467L466.94 77.3457C463.536 78.8958 459.873 79.668 455.967 79.668C450.779 79.6679 446.019 78.3305 441.718 75.6514L441.714 75.6484C437.472 72.9834 434.076 69.4152 431.532 64.9629L431.526 64.9521C429.008 60.4414 427.754 55.4663 427.754 50.0508C427.754 45.9438 428.483 42.0958 429.951 38.5195C431.409 34.9321 433.415 31.7796 435.97 29.0742L436.461 28.5674C438.94 26.0665 441.786 24.0906 444.993 22.6455C448.431 21.0968 452.093 20.3243 455.967 20.3242ZM455.967 35.9072C453.605 35.9073 451.498 36.5423 449.613 37.8096C447.698 39.0972 446.173 40.8161 445.036 42.9893C443.905 45.1523 443.336 47.5001 443.336 50.0508C443.336 52.7119 443.924 55.0862 445.08 57.2002C446.249 59.3368 447.787 61.0203 449.696 62.2744C451.63 63.4855 453.712 64.0859 455.967 64.0859C458.369 64.0859 460.493 63.4481 462.375 62.1826C464.291 60.8943 465.796 59.1954 466.895 57.0645L466.897 57.0576L466.901 57.0508C468.029 54.9277 468.598 52.6014 468.598 50.0508C468.598 47.4283 468.012 45.0705 466.854 42.9541L466.849 42.9443L466.844 42.9346C465.711 40.769 464.175 39.0742 462.232 37.8232L462.213 37.8096C460.322 36.5382 458.25 35.9072 455.967 35.9072Z" fill="white"/>
<path fill-rule="evenodd" clip-rule="evenodd" d="M360.993 62.5C363.186 62.5001 365.093 63.2938 366.649 64.8496C368.201 66.4007 369 68.2888 369 70.4531C369 72.6756 368.21 74.6032 366.649 76.1641L366.644 76.1699L366.638 76.1748C365.079 77.6911 363.176 78.4599 360.993 78.46C358.81 78.46 356.906 77.6912 355.348 76.1748L355.336 76.1641L355.324 76.1523C353.803 74.5892 353.04 72.6652 353.04 70.4531C353.04 68.2994 353.813 66.4149 355.324 64.8613L355.336 64.8496C356.892 63.2936 358.8 62.5 360.993 62.5Z" fill="white"/>
<path fill-rule="evenodd" clip-rule="evenodd" d="M403.534 20C407.994 20.0001 412.107 20.9385 415.853 22.8301C419.637 24.6867 422.647 27.3326 424.856 30.7617L425.532 31.8096L412.992 39.2168L412.384 38.1748C411.964 37.4558 411.366 36.7718 410.563 36.1299L410.542 36.1123C409.743 35.4411 408.825 34.8916 407.782 34.4678L407.753 34.4561C406.734 34.0104 405.671 33.7543 404.556 33.6895C403.039 33.6225 401.69 33.7596 400.497 34.082C399.351 34.3918 398.477 34.8998 397.823 35.5762C397.28 36.1711 396.954 37.0093 396.954 38.2188C396.954 39.2068 397.31 39.8323 398.009 40.2783C398.958 40.8451 400.127 41.3056 401.535 41.6416C402.715 41.9161 403.858 42.2117 404.959 42.5283L406.048 42.8525L406.06 42.8564L406.07 42.8594C409.302 43.9244 412.338 45.2307 415.177 46.7783C418.112 48.3591 420.503 50.3186 422.313 52.668C424.191 55.1055 425.071 58.011 424.993 61.3164L424.992 61.3154C424.987 65.0571 423.859 68.3751 421.6 71.2188L421.17 71.7344C419.009 74.2461 416.282 76.1749 413.015 77.5244L413.014 77.5234C409.552 78.9681 405.851 79.5341 401.929 79.2324C399.015 79.0442 396.191 78.4636 393.461 77.4912L393.451 77.4883L393.441 77.4844C390.733 76.4685 388.311 75.09 386.187 73.3447C384.035 71.5775 382.373 69.4544 381.215 66.9834L380.688 65.8584L393.922 60.2051L394.46 61.1025C394.799 61.6675 395.393 62.3426 396.309 63.123C397.172 63.8242 398.212 64.4279 399.44 64.9268C400.654 65.4052 401.996 65.6523 403.479 65.6523C404.734 65.6523 405.909 65.4885 407.01 65.167C408.117 64.8191 408.937 64.3194 409.527 63.7012L409.537 63.6904L409.547 63.6807C410.085 63.1423 410.384 62.4357 410.384 61.4502C410.384 60.4357 410.048 59.7833 409.447 59.3213L409.427 59.3057L409.407 59.2891C408.673 58.6721 407.693 58.1841 406.423 57.8584L406.388 57.8486C405.041 57.4587 403.73 57.104 402.456 56.7852C398.952 56.0817 395.677 54.9898 392.635 53.5059L392.63 53.5039C389.573 51.9945 387.067 50.0325 385.144 47.6084L385.137 47.6006L385.131 47.5928C383.187 45.054 382.236 42.0158 382.236 38.543C382.236 34.7553 383.235 31.4226 385.272 28.6016L385.279 28.5928C387.312 25.8312 389.94 23.7052 393.142 22.2188L393.146 22.2168C396.372 20.7366 399.84 20 403.534 20Z" fill="white"/>
<path fill-rule="evenodd" clip-rule="evenodd" d="M233.21 20.3242C235.309 20.3242 237.403 20.6297 239.488 21.2363L240.748 21.6035L234.646 37.2383L233.526 36.7959C232.287 36.3068 231.067 36.0693 229.86 36.0693C227.942 36.0694 226.21 36.5379 224.637 37.4688L224.631 37.4727C223.083 38.3755 221.842 39.6136 220.898 41.207C220.006 42.7393 219.553 44.4535 219.553 46.377V78.2637H203.972L203.915 21.8369H219.485L219.522 25.1328C221.001 23.939 222.65 22.9455 224.464 22.1533C227.181 20.9311 230.101 20.3243 233.21 20.3242Z" fill="white"/>
</svg>
